# xmcd CD database file
#
# Track frame offsets:
#	150
#	76704
#	138067
#	210242
#	272858
#
# Disc length: 4546 seconds
#
# Revision: 0
# Processed by: cddbd v1.5.1PL0 Copyright (c) Steve Scherf et al.
# Submitted via: CDex 1.51
#
DISCID=3511c005
DTITLE=Steve Kimock and Friends - 02-10-31 Disc3
DYEAR=2002
DGENRE=Jazz
TTITLE0=Its Up To You
TTITLE1=Golden Road
TTITLE2=Young Man Blues
TTITLE3=Like A Road
TTITLE4=Little Wing
EXTD=YEAR: 2002
EXTT0=
EXTT1=
EXTT2=
EXTT3=
EXTT4=
PLAYORDER=
